<?xml version="1.0" encoding="UTF-8" standalone="no"?>
<!DOCTYPE svg PUBLIC "-//W3C//DTD SVG 1.1//EN" "http://www.w3.org/Graphics/SVG/1.1/DTD/svg11.dtd">
<svg xmlns="http://www.w3.org/2000/svg" version="1.1" viewBox="0.00 0.00 515.00 520.00" width="515.00" height="520.00">
<g stroke-width="2.00" fill="none" stroke-linecap="butt">
<path stroke="#879277" vector-effect="non-scaling-stroke" d="
  M 348.67 25.88
  Q 334.81 32.95 331.30 35.53
  C 320.26 43.65 311.89 51.42 314.98 66.46
  Q 317.39 78.23 320.27 84.75
  C 322.02 88.73 322.91 92.22 324.81 95.77
  Q 326.17 98.33 326.67 100.77"
/>
<path stroke="#303d53" vector-effect="non-scaling-stroke" d="
  M 232.88 44.05
  Q 221.72 44.39 211.00 46.25
  C 165.23 54.20 119.12 69.20 80.46 95.57"
/>
<path stroke="#99a489" vector-effect="non-scaling-stroke" d="
  M 80.46 95.57
  L 65.60 76.17
  Q 65.29 75.76 65.32 75.25
  L 67.07 42.44"
/>
<path stroke="#7e8671" vector-effect="non-scaling-stroke" d="
  M 80.46 95.57
  L 121.14 145.41"
/>
<path stroke="#7e8671" vector-effect="non-scaling-stroke" d="
  M 112.51 154.51
  L 111.97 154.58
  Q 111.66 154.62 111.53 154.48
  L 64.10 99.95
  Q 63.62 99.40 63.58 100.13
  Q 63.40 103.05 63.30 105.80
  Q 63.29 106.04 63.19 106.15
  Q 63.04 106.31 62.78 106.27"
/>
<path stroke="#7e8671" vector-effect="non-scaling-stroke" d="
  M 95.47 171.41
  Q 92.66 172.11 91.36 174.21
  A 1.87 1.87 0.0 0 1 88.33 174.42
  L 61.52 142.17
  Q 61.17 141.76 61.21 141.23
  L 62.05 126.26"
/>
<path stroke="#7e8671" vector-effect="non-scaling-stroke" d="
  M 77.51 188.56
  L 60.41 166.97
  A 0.69 0.68 -71.0 0 0 59.21 167.56
  Q 59.54 168.92 58.70 169.88"
/>
<path stroke="#7e8671" vector-effect="non-scaling-stroke" d="
  M 88.90 201.75
  L 93.22 205.63"
/>
<path stroke="#303d53" vector-effect="non-scaling-stroke" d="
  M 189.75 326.97
  Q 190.20 328.81 188.70 329.39
  Q 188.56 329.44 188.52 329.30
  Q 188.47 329.15 188.42 328.97
  A 0.21 0.21 0.0 0 0 188.01 328.99
  L 187.11 333.40
  Q 187.01 333.90 187.30 334.33
  Q 188.31 335.84 186.76 337.44
  Q 186.55 337.66 186.25 337.61
  Q 186.13 337.59 185.98 337.55"
/>
<path stroke="#7e8671" vector-effect="non-scaling-stroke" d="
  M 185.98 337.55
  Q 154.03 303.92 122.37 270.02
  C 100.75 246.88 80.20 222.54 59.07 198.93
  Q 58.08 197.82 57.75 194.44"
/>
<path stroke="#99a489" vector-effect="non-scaling-stroke" d="
  M 185.98 337.55
  Q 208.43 360.96 231.44 383.81
  Q 234.46 386.82 242.57 396.71
  Q 242.90 397.11 243.42 397.06
  L 253.97 395.96"
/>
<path stroke="#7e8671" vector-effect="non-scaling-stroke" d="
  M 101.75 269.74
  Q 88.88 256.00 75.99 241.87
  C 69.34 234.58 63.24 226.39 56.99 218.49
  Q 56.40 217.75 56.39 218.69
  L 56.32 224.78"
/>
<path stroke="#7e8671" vector-effect="non-scaling-stroke" d="
  M 197.16 308.33
  Q 193.35 302.58 188.53 296.83
  C 176.50 282.47 165.32 267.46 153.25 253.10
  C 136.51 233.17 120.33 212.77 103.92 192.58
  Q 102.13 190.37 100.44 187.16"
/>
<path stroke="#7e8671" vector-effect="non-scaling-stroke" d="
  M 118.50 307.39
  L 48.74 370.67
  Q 47.73 371.59 47.80 370.23
  C 48.74 351.58 49.50 332.84 50.80 313.85
  C 52.39 290.44 52.98 266.35 55.25 241.73"
/>
<path stroke="#99a489" vector-effect="non-scaling-stroke" d="
  M 261.98 41.84
  Q 261.51 42.60 260.22 42.54
  A 1.13 1.11 26.4 0 0 259.46 42.79
  L 256.67 45.01"
/>
<path stroke="#7e8671" vector-effect="non-scaling-stroke" d="
  M 256.67 45.01
  Q 254.50 46.74 252.30 48.80
  Q 228.59 71.08 204.11 92.50
  C 182.57 111.35 161.62 130.94 140.48 150.23
  Q 135.93 154.38 132.20 158.06
  Q 131.08 159.16 132.07 160.38
  L 176.43 215.46"
/>
<path stroke="#7e8671" vector-effect="non-scaling-stroke" d="
  M 132.20 183.72
  L 119.40 168.87"
/>
<path stroke="#7e8671" vector-effect="non-scaling-stroke" d="
  M 270.41 65.50
  L 264.06 70.44"
/>
<path stroke="#303d53" vector-effect="non-scaling-stroke" d="
  M 275.66 49.19
  L 256.67 45.01"
/>
<path stroke="#99a489" vector-effect="non-scaling-stroke" d="
  M 264.16 101.23
  C 264.29 99.54 265.76 98.26 264.21 96.52"
/>
<path stroke="#99a489" vector-effect="non-scaling-stroke" d="
  M 292.97 181.92
  L 293.18 185.77
  A 0.36 0.36 0.0 0 0 293.79 186.02
  L 330.17 152.70"
/>
<path stroke="#99a489" vector-effect="non-scaling-stroke" d="
  M 265.49 238.18
  Q 259.36 242.60 253.73 248.98
  Q 251.81 251.16 248.80 253.35"
/>
<path stroke="#303d53" vector-effect="non-scaling-stroke" d="
  M 248.80 253.35
  Q 244.68 248.16 243.45 242.97"
/>
<path stroke="#99a489" vector-effect="non-scaling-stroke" d="
  M 249.90 236.14
  Q 254.48 233.05 257.68 228.61
  C 260.01 225.38 261.50 223.23 261.20 219.50
  C 260.37 209.01 256.58 198.06 255.17 189.83
  Q 252.73 175.59 254.01 161.23
  C 255.89 140.04 266.20 123.18 274.82 104.42
  Q 276.03 101.78 276.20 98.87
  Q 276.96 85.36 277.07 72.54"
/>
<path stroke="#303d53" vector-effect="non-scaling-stroke" d="
  M 248.24 135.73
  Q 246.37 135.82 244.95 137.45
  C 211.53 175.79 204.57 230.91 219.11 278.46
  C 219.28 279.01 219.14 279.10 219.14 279.66"
/>
<path stroke="#303d53" vector-effect="non-scaling-stroke" d="
  M 240.81 183.09
  Q 239.37 186.79 240.46 191.05"
/>
<path stroke="#99a489" vector-effect="non-scaling-stroke" d="
  M 249.99 106.10
  Q 246.93 109.25 243.33 112.23
  C 220.45 131.15 205.68 154.66 198.88 183.80
  C 196.37 194.53 195.54 201.63 194.46 210.22
  C 191.12 236.67 196.79 263.98 208.54 288.00
  Q 209.00 288.93 209.76 288.23
  L 219.14 279.66"
/>
<path stroke="#7e8671" vector-effect="non-scaling-stroke" d="
  M 219.14 279.66
  Q 218.92 279.34 219.28 279.65
  Q 219.32 279.68 219.35 279.65
  L 248.80 253.35"
/>
<path stroke="#7e8671" vector-effect="non-scaling-stroke" d="
  M 501.68 129.95
  Q 499.29 139.26 496.84 148.46
  Q 489.37 176.47 477.54 202.70"
/>
<path stroke="#99a489" vector-effect="non-scaling-stroke" d="
  M 477.54 202.70
  C 462.36 225.25 442.26 244.25 421.11 256.82
  Q 401.92 268.23 379.45 271.33
  A 0.84 0.83 -6.6 0 1 378.50 270.58
  Q 377.92 264.71 377.55 258.66
  Q 377.53 258.27 377.70 258.03
  Q 378.01 257.59 378.39 257.78"
/>
<path stroke="#303d53" vector-effect="non-scaling-stroke" d="
  M 480.29 269.11
  Q 477.10 273.64 475.31 279.08"
/>
<path stroke="#303d53" vector-effect="non-scaling-stroke" d="
  M 473.02 283.24
  L 467.44 292.67"
/>
<path stroke="#7e8671" vector-effect="non-scaling-stroke" d="
  M 467.44 292.67
  L 451.42 314.81"
/>
<path stroke="#303d53" vector-effect="non-scaling-stroke" d="
  M 400.70 310.94
  Q 397.99 309.83 395.90 308.38
  C 391.50 305.34 387.43 303.04 383.10 300.38
  Q 381.80 299.58 382.08 297.94
  A 1.16 1.15 -85.1 0 1 383.23 296.97
  C 387.55 297.02 392.48 297.57 395.95 297.55
  C 428.91 297.32 447.18 276.95 460.05 248.81
  Q 470.86 225.17 477.54 202.70"
/>
<path stroke="#99a489" vector-effect="non-scaling-stroke" d="
  M 356.21 204.93
  Q 356.01 206.00 357.92 207.67"
/>
<path stroke="#303d53" vector-effect="non-scaling-stroke" d="
  M 357.92 207.67
  C 358.13 208.85 358.39 210.63 358.93 211.68
  Q 369.31 231.96 377.14 253.37
  C 377.52 254.43 377.57 256.12 378.37 257.01"
/>
<path stroke="#99a489" vector-effect="non-scaling-stroke" d="
  M 377.32 312.77
  C 367.15 314.43 350.74 321.03 347.22 331.93
  Q 344.14 341.48 339.60 350.72"
/>
<path stroke="#303d53" vector-effect="non-scaling-stroke" d="
  M 339.60 350.72
  C 306.81 335.21 282.46 317.23 270.28 281.75
  Q 266.09 269.55 265.06 257.39"
/>
<path stroke="#99a489" vector-effect="non-scaling-stroke" d="
  M 467.81 292.67
  Q 466.95 292.13 467.44 292.67"
/>
<path stroke="#7e8671" vector-effect="non-scaling-stroke" d="
  M 339.60 350.72
  L 340.63 351.68"
/>
<path stroke="#303d53" vector-effect="non-scaling-stroke" d="
  M 340.63 351.68
  Q 349.92 360.26 361.05 366.58
  Q 361.46 366.81 361.13 367.15
  Q 354.17 374.56 351.28 376.55
  Q 347.64 379.04 346.37 380.45"
/>
<path stroke="#7e8671" vector-effect="non-scaling-stroke" d="
  M 346.37 380.45
  C 326.15 372.95 305.94 366.50 285.83 357.45
  Q 274.57 352.38 268.32 347.91
  Q 248.52 333.73 238.25 310.98
  Q 234.33 302.29 230.34 293.67"
/>
<path stroke="#99a489" vector-effect="non-scaling-stroke" d="
  M 347.67 348.07
  L 340.63 351.68"
/>
<path stroke="#99a489" vector-effect="non-scaling-stroke" d="
  M 341.75 188.16
  Q 318.55 207.85 296.70 228.95
  Q 295.26 230.34 293.58 231.44
  Q 293.19 231.69 293.01 231.27
  Q 292.92 231.06 293.02 230.83"
/>
<path stroke="#7e8671" vector-effect="non-scaling-stroke" d="
  M 437.41 207.07
  Q 417.99 219.17 396.25 219.45
  Q 381.82 219.64 372.10 215.39
  Q 369.07 214.07 357.92 207.67"
/>
<path stroke="#99a489" vector-effect="non-scaling-stroke" d="
  M 346.37 380.45
  L 370.86 387.58"
/>
<path stroke="#303d53" vector-effect="non-scaling-stroke" d="
  M 440.49 206.47
  L 437.64 206.60"
/>
<path stroke="#99a489" vector-effect="non-scaling-stroke" d="
  M 394.92 391.53
  Q 408.88 391.73 422.07 388.12
  C 433.90 384.88 440.37 382.76 444.09 369.82
  Q 448.47 354.61 449.74 338.83
  A 0.54 0.53 -79.9 0 0 449.36 338.28
  C 438.53 335.21 426.41 330.33 417.19 328.24
  Q 406.19 325.75 394.59 325.50"
/>
<path stroke="#38495a" vector-effect="non-scaling-stroke" d="
  M 207.78 386.21
  Q 200.75 384.82 194.19 382.97
  C 165.15 374.77 133.27 374.68 104.43 384.10
  C 92.49 388.00 81.36 392.45 71.83 399.58
  Q 57.65 410.21 46.35 423.95
  A 0.83 0.82 -44.0 0 1 45.06 423.93
  Q 44.95 423.78 44.94 423.24"
/>
<path stroke="#879277" vector-effect="non-scaling-stroke" d="
  M 211.09 395.30
  Q 202.10 398.54 195.00 403.25
  Q 190.00 406.57 182.53 412.96"
/>
<path stroke="#38495a" vector-effect="non-scaling-stroke" d="
  M 182.53 412.96
  Q 171.91 410.20 158.52 410.10
  Q 110.70 409.76 70.25 431.35
  C 62.61 435.43 54.09 441.20 46.16 446.27
  Q 45.72 446.55 45.27 446.54
  Q 44.75 446.53 44.24 446.49
  Q 43.90 446.46 43.77 446.78
  L 43.31 448.01"
/>
<path stroke="#7e8671" vector-effect="non-scaling-stroke" d="
  M 151.42 470.69
  Q 152.03 469.10 151.70 467.67
  Q 151.57 467.12 151.00 467.09
  L 46.58 460.80"
/>
<path stroke="#99a489" vector-effect="non-scaling-stroke" d="
  M 46.96 448.89
  Q 48.26 448.61 48.75 448.65
  Q 65.39 450.23 82.08 450.36
  C 94.87 450.46 105.63 451.10 117.42 451.67
  C 126.33 452.09 140.69 453.35 152.40 453.50
  Q 152.91 453.51 153.04 453.02
  Q 155.36 444.24 161.13 435.61
  C 168.03 425.26 174.25 420.37 182.53 412.96"
/>
<path stroke="#7e8671" vector-effect="non-scaling-stroke" d="
  M 150.70 483.78
  L 150.22 489.77
  Q 150.17 490.35 149.59 490.31
  L 47.35 483.79"
/>
<path stroke="#99a489" vector-effect="non-scaling-stroke" d="
  M 348.03 268.56
  Q 353.43 273.03 359.02 277.02
  C 361.10 278.50 362.79 281.09 366.00 282.13
  Q 366.50 282.29 366.70 281.80
  Q 366.97 281.15 366.65 280.20"
/>
<path stroke="#99a489" vector-effect="non-scaling-stroke" d="
  M 358.24 246.08
  Q 358.65 240.38 357.11 234.40"
/>
<path stroke="#99a489" vector-effect="non-scaling-stroke" d="
  M 390.83 352.29
  Q 386.27 351.54 381.21 353.46
  Q 370.17 357.66 362.49 365.62
  A 0.47 0.47 0.0 0 0 362.56 366.34
  Q 373.22 373.90 383.93 376.54
  Q 393.02 378.79 403.22 377.04"
/>
</g>
<path fill="#e7eca6" d="
  M 348.67 25.88
  Q 334.81 32.95 331.30 35.53
  C 320.26 43.65 311.89 51.42 314.98 66.46
  Q 317.39 78.23 320.27 84.75
  C 322.02 88.73 322.91 92.22 324.81 95.77
  Q 326.17 98.33 326.67 100.77
  L 321.60 105.71
  Q 321.20 106.10 320.94 105.62
  C 311.47 88.31 305.04 74.06 301.22 56.75
  C 300.23 52.26 302.29 48.02 304.64 43.40
  C 311.53 29.84 334.07 18.87 347.27 12.36
  A 0.44 0.44 0.0 0 1 347.91 12.73
  L 348.67 25.88
  Z"
/>
<path fill="#263748" d="
  M 326.67 100.77
  Q 326.17 98.33 324.81 95.77
  C 322.91 92.22 322.02 88.73 320.27 84.75
  Q 317.39 78.23 314.98 66.46
  C 311.89 51.42 320.26 43.65 331.30 35.53
  Q 334.81 32.95 348.67 25.88
  L 360.81 20.73
  A 0.64 0.64 0.0 0 1 361.70 21.38
  Q 360.02 37.64 361.35 54.24
  Q 363.87 85.88 338.39 103.68
  Q 334.70 106.25 331.17 108.83
  A 0.64 0.63 -30.1 0 1 330.22 108.58
  L 326.67 100.77
  Z"
/>
<path fill="#4a5b6b" d="
  M 232.88 44.05
  Q 221.72 44.39 211.00 46.25
  C 165.23 54.20 119.12 69.20 80.46 95.57
  L 65.60 76.17
  Q 65.29 75.76 65.32 75.25
  L 67.07 42.44
  L 67.93 33.71
  Q 67.99 33.11 68.59 33.11
  Q 85.92 32.97 103.01 35.21
  Q 114.06 36.66 120.56 37.01
  Q 178.77 40.14 237.50 39.42
  Q 239.44 39.40 237.86 40.52
  L 232.88 44.05
  Z"
/>
<path fill="#e7eca6" d="
  M 261.98 41.84
  Q 261.51 42.60 260.22 42.54
  A 1.13 1.11 26.4 0 0 259.46 42.79
  L 256.67 45.01
  Q 254.50 46.74 252.30 48.80
  Q 228.59 71.08 204.11 92.50
  C 182.57 111.35 161.62 130.94 140.48 150.23
  Q 135.93 154.38 132.20 158.06
  Q 131.08 159.16 132.07 160.38
  L 176.43 215.46
  Q 174.83 223.54 175.76 230.73
  A 0.47 0.47 0.0 0 1 174.94 231.10
  C 173.46 229.40 172.61 227.48 171.02 225.94
  Q 160.43 215.68 151.10 204.27
  Q 150.39 203.41 147.93 201.18
  C 146.32 199.72 145.39 197.94 144.09 196.55
  Q 138.96 191.06 134.48 185.03
  Q 133.79 184.09 132.20 183.72
  L 119.40 168.87
  Q 121.27 165.85 123.85 163.36
  Q 132.03 155.45 139.89 147.23
  C 146.58 140.23 155.31 131.87 162.70 123.92
  C 178.54 106.88 196.99 90.90 213.10 73.10
  C 217.65 68.06 222.39 63.81 227.19 59.22
  C 232.15 54.48 237.86 47.18 244.37 42.01
  Q 244.75 41.71 245.23 41.65
  Q 253.56 40.66 261.98 41.84
  Z"
/>
<path fill="#4a5b6b" d="
  M 261.98 41.84
  Q 267.92 43.98 274.58 43.43
  A 0.85 0.85 0.0 0 1 275.43 43.94
  Q 276.26 45.86 275.66 49.19
  L 256.67 45.01
  L 259.46 42.79
  A 1.13 1.11 26.4 0 1 260.22 42.54
  Q 261.51 42.60 261.98 41.84
  Z"
/>
<path fill="#e7eca6" d="
  M 67.07 42.44
  L 65.32 75.25
  Q 65.29 75.76 65.60 76.17
  L 80.46 95.57
  L 121.14 145.41
  C 118.71 147.21 113.22 151.48 112.51 154.51
  L 111.97 154.58
  Q 111.66 154.62 111.53 154.48
  L 64.10 99.95
  Q 63.62 99.40 63.58 100.13
  Q 63.40 103.05 63.30 105.80
  Q 63.29 106.04 63.19 106.15
  Q 63.04 106.31 62.78 106.27
  L 46.83 88.50
  A 1.36 1.34 -66.7 0 1 46.49 87.63
  Q 46.31 76.25 46.68 64.91
  C 46.92 57.55 46.69 50.37 46.50 43.08
  A 0.55 0.55 0.0 0 1 47.05 42.51
  L 67.07 42.44
  Z"
/>
<path fill="#151f3b" d="
  M 232.88 44.05
  L 121.14 145.41
  L 80.46 95.57
  C 119.12 69.20 165.23 54.20 211.00 46.25
  Q 221.72 44.39 232.88 44.05
  Z"
/>
<path fill="#151f3b" d="
  M 256.67 45.01
  L 275.66 49.19
  Q 276.07 56.34 275.31 59.80
  Q 274.61 62.99 270.41 65.50
  L 264.06 70.44
  C 259.58 75.12 254.27 78.81 250.00 83.06
  C 244.67 88.37 238.01 93.86 233.51 98.35
  C 225.96 105.88 220.57 111.10 215.23 118.96
  C 213.26 121.86 209.98 124.72 208.51 127.48
  Q 205.03 134.03 201.07 140.29
  C 198.76 143.93 197.32 147.92 195.31 152.07
  Q 190.81 161.36 188.59 172.19
  C 188.19 174.14 186.78 177.17 186.55 179.89
  C 186.26 183.42 185.00 186.70 184.76 190.32
  Q 184.56 193.24 184.00 196.99
  C 183.54 200.01 183.86 203.04 183.40 205.98
  Q 182.20 213.60 182.84 221.13
  A 0.58 0.58 0.0 0 1 181.83 221.57
  L 176.43 215.46
  L 132.07 160.38
  Q 131.08 159.16 132.20 158.06
  Q 135.93 154.38 140.48 150.23
  C 161.62 130.94 182.57 111.35 204.11 92.50
  Q 228.59 71.08 252.30 48.80
  Q 254.50 46.74 256.67 45.01
  Z"
/>
<path fill="#4a5b6b" d="
  M 292.97 181.92
  L 293.18 185.77
  A 0.36 0.36 0.0 0 0 293.79 186.02
  L 330.17 152.70
  Q 330.22 153.68 330.94 153.19
  Q 332.48 152.14 333.44 151.54
  Q 334.00 151.19 334.17 151.83
  C 334.66 153.64 334.33 155.24 334.90 156.95
  Q 337.24 163.93 338.73 171.13
  A 1.14 1.12 57.8 0 1 338.53 172.05
  Q 336.68 174.57 334.28 176.54
  Q 326.82 182.68 319.67 189.18
  Q 292.58 213.81 265.49 238.18
  Q 259.36 242.60 253.73 248.98
  Q 251.81 251.16 248.80 253.35
  Q 244.68 248.16 243.45 242.97
  L 249.90 236.14
  Q 254.48 233.05 257.68 228.61
  C 260.01 225.38 261.50 223.23 261.20 219.50
  C 260.37 209.01 256.58 198.06 255.17 189.83
  Q 252.73 175.59 254.01 161.23
  C 255.89 140.04 266.20 123.18 274.82 104.42
  Q 276.03 101.78 276.20 98.87
  Q 276.96 85.36 277.07 72.54
  Q 278.46 66.80 277.00 62.25
  A 0.55 0.54 14.9 0 1 277.92 61.72
  C 287.72 72.31 294.50 84.42 303.71 95.31
  Q 316.82 110.80 328.56 127.37
  Q 330.36 129.90 332.17 132.46
  Q 332.48 132.89 332.05 133.19
  Q 317.52 143.39 306.17 156.94
  Q 298.73 165.82 297.32 168.04
  Q 293.21 174.47 292.97 181.92
  Z"
/>
<path fill="#e7eca6" d="
  M 270.41 65.50
  L 277.07 72.54
  Q 276.96 85.36 276.20 98.87
  Q 276.03 101.78 274.82 104.42
  C 266.20 123.18 255.89 140.04 254.01 161.23
  Q 252.73 175.59 255.17 189.83
  C 256.58 198.06 260.37 209.01 261.20 219.50
  C 261.50 223.23 260.01 225.38 257.68 228.61
  Q 254.48 233.05 249.90 236.14
  L 256.81 225.70
  A 1.31 1.25 58.1 0 0 257.00 224.79
  Q 255.00 212.66 250.51 201.24
  C 250.01 199.97 250.10 198.59 249.57 197.24
  C 247.68 192.44 247.68 187.00 246.90 182.68
  C 245.31 173.90 245.88 165.05 246.15 156.18
  Q 246.35 149.48 250.17 137.85
  Q 255.93 120.31 264.01 103.72
  Q 264.36 103.01 264.16 101.23
  C 264.29 99.54 265.76 98.26 264.21 96.52
  L 264.06 70.44
  L 270.41 65.50
  Z"
/>
<path fill="#e7eca6" d="
  M 249.99 106.10
  Q 246.93 109.25 243.33 112.23
  C 220.45 131.15 205.68 154.66 198.88 183.80
  C 196.37 194.53 195.54 201.63 194.46 210.22
  C 191.12 236.67 196.79 263.98 208.54 288.00
  Q 209.00 288.93 209.76 288.23
  L 219.14 279.66
  Q 218.92 279.34 219.28 279.65
  Q 219.32 279.68 219.35 279.65
  L 248.80 253.35
  Q 251.81 251.16 253.73 248.98
  Q 259.36 242.60 265.49 238.18
  Q 257.47 246.54 249.70 254.94
  C 246.09 258.85 241.93 261.93 238.40 265.83
  Q 230.29 274.79 220.94 282.45
  C 215.72 286.72 211.90 291.97 207.47 296.92
  Q 207.13 297.30 206.84 296.87
  C 201.83 289.30 198.80 281.03 195.30 272.95
  Q 194.45 270.99 194.00 267.85
  C 193.39 263.72 191.18 260.08 190.47 256.37
  C 188.96 248.46 187.42 240.99 187.12 232.65
  C 186.94 227.55 186.29 222.94 187.03 217.83
  Q 188.36 208.80 189.12 199.70
  C 189.51 195.12 190.35 190.79 191.00 186.27
  C 192.47 176.07 196.60 167.23 199.92 158.05
  C 206.99 138.56 223.77 120.28 239.90 106.67
  Q 246.15 101.39 250.80 98.84
  C 251.71 98.34 252.41 97.47 253.06 96.71
  Q 253.36 96.35 253.55 96.78
  Q 253.64 96.98 253.49 97.23
  Q 251.07 101.42 249.99 106.10
  Z"
/>
<path fill="#4a5b6b" d="
  M 264.21 96.52
  C 265.76 98.26 264.29 99.54 264.16 101.23
  Q 264.02 101.23 263.88 101.24
  Q 263.58 101.28 263.42 101.54
  Q 253.19 117.50 248.24 135.73
  Q 246.37 135.82 244.95 137.45
  C 211.53 175.79 204.57 230.91 219.11 278.46
  C 219.28 279.01 219.14 279.10 219.14 279.66
  L 209.76 288.23
  Q 209.00 288.93 208.54 288.00
  C 196.79 263.98 191.12 236.67 194.46 210.22
  C 195.54 201.63 196.37 194.53 198.88 183.80
  C 205.68 154.66 220.45 131.15 243.33 112.23
  Q 246.93 109.25 249.99 106.10
  Q 253.96 104.32 257.21 101.49
  C 259.40 99.58 261.96 98.57 264.21 96.52
  Z"
/>
<path fill="#151f3b" d="
  M 112.51 154.51
  L 112.50 154.87
  Q 112.49 155.24 112.22 155.50
  L 95.47 171.41
  Q 92.66 172.11 91.36 174.21
  A 1.87 1.87 0.0 0 1 88.33 174.42
  L 61.52 142.17
  Q 61.17 141.76 61.21 141.23
  L 62.05 126.26
  Q 63.90 116.91 63.34 107.37
  A 0.86 0.82 28.6 0 0 63.21 106.96
  L 62.78 106.27
  Q 63.04 106.31 63.19 106.15
  Q 63.29 106.04 63.30 105.80
  Q 63.40 103.05 63.58 100.13
  Q 63.62 99.40 64.10 99.95
  L 111.53 154.48
  Q 111.66 154.62 111.97 154.58
  L 112.51 154.51
  Z"
/>
<path fill="#e7eca6" d="
  M 501.68 129.95
  Q 499.29 139.26 496.84 148.46
  Q 489.37 176.47 477.54 202.70
  C 462.36 225.25 442.26 244.25 421.11 256.82
  Q 401.92 268.23 379.45 271.33
  A 0.84 0.83 -6.6 0 1 378.50 270.58
  Q 377.92 264.71 377.55 258.66
  Q 377.53 258.27 377.70 258.03
  Q 378.01 257.59 378.39 257.78
  L 380.02 267.27
  Q 380.21 268.39 381.34 268.45
  Q 385.51 268.67 389.78 267.32
  C 411.83 260.40 426.80 249.68 445.20 234.45
  C 446.22 233.61 447.26 231.65 448.29 230.53
  Q 457.92 220.17 468.52 206.28
  C 476.35 196.01 481.76 182.75 485.26 171.75
  Q 487.96 163.24 495.57 131.16
  C 495.89 129.79 495.95 126.68 496.74 124.71
  Q 497.31 123.26 497.39 122.18
  Q 497.84 116.17 498.96 110.24
  Q 499.17 109.11 499.43 110.23
  C 500.81 116.23 501.82 124.41 501.68 129.95
  Z"
/>
<path fill="#e7eca6" d="
  M 62.05 126.26
  L 61.21 141.23
  Q 61.17 141.76 61.52 142.17
  L 88.33 174.42
  A 1.87 1.87 0.0 0 0 91.36 174.21
  Q 92.66 172.11 95.47 171.41
  L 77.51 188.56
  L 60.41 166.97
  A 0.69 0.68 -71.0 0 0 59.21 167.56
  Q 59.54 168.92 58.70 169.88
  Q 53.47 162.26 46.69 156.48
  Q 46.33 156.17 46.33 155.69
  L 46.55 113.05
  Q 46.55 112.25 47.15 112.78
  Q 50.46 115.66 52.57 119.42
  Q 53.80 121.62 60.07 126.19
  C 60.79 126.71 61.30 126.56 62.05 126.26
  Z"
/>
<path fill="#151f3b" d="
  M 501.68 129.95
  C 502.05 132.09 501.66 133.99 502.08 135.98
  Q 503.25 141.57 504.25 147.22
  A 1.90 1.84 50.6 0 1 504.17 148.19
  C 503.23 150.89 504.34 153.24 504.31 155.34
  C 503.99 178.82 501.39 196.97 497.40 217.73
  Q 496.33 223.32 494.41 228.64
  C 489.54 242.13 485.20 255.77 480.29 269.11
  Q 477.10 273.64 475.31 279.08
  L 473.02 283.24
  L 467.44 292.67
  L 451.42 314.81
  L 446.52 319.71
  Q 446.14 320.09 445.65 319.91
  Q 427.33 313.34 408.08 310.99
  C 405.67 310.70 403.18 311.04 400.70 310.94
  Q 397.99 309.83 395.90 308.38
  C 391.50 305.34 387.43 303.04 383.10 300.38
  Q 381.80 299.58 382.08 297.94
  A 1.16 1.15 -85.1 0 1 383.23 296.97
  C 387.55 297.02 392.48 297.57 395.95 297.55
  C 428.91 297.32 447.18 276.95 460.05 248.81
  Q 470.86 225.17 477.54 202.70
  Q 489.37 176.47 496.84 148.46
  Q 499.29 139.26 501.68 129.95
  Z"
/>
<path fill="#151f3b" d="
  M 248.24 135.73
  Q 245.41 146.13 243.01 156.60
  C 242.74 157.81 243.28 159.35 242.29 160.64
  Q 241.98 161.04 241.96 161.55
  L 240.81 183.09
  Q 239.37 186.79 240.46 191.05
  C 240.75 196.48 240.28 201.90 240.54 207.31
  C 241.11 218.91 238.45 232.06 243.45 242.97
  Q 244.68 248.16 248.80 253.35
  L 219.35 279.65
  Q 219.32 279.68 219.28 279.65
  Q 218.92 279.34 219.14 279.66
  C 219.14 279.10 219.28 279.01 219.11 278.46
  C 204.57 230.91 211.53 175.79 244.95 137.45
  Q 246.37 135.82 248.24 135.73
  Z"
/>
<path fill="#e7eca6" d="
  M 330.17 152.70
  L 293.79 186.02
  A 0.36 0.36 0.0 0 1 293.18 185.77
  L 292.97 181.92
  L 327.20 146.91
  Q 327.56 146.53 327.77 147.01
  L 330.17 152.70
  Z"
/>
<path fill="#151f3b" d="
  M 77.51 188.56
  L 88.90 201.75
  L 93.22 205.63
  Q 92.60 207.56 95.48 210.77
  Q 114.81 232.38 125.08 245.92
  C 140.36 266.08 156.81 285.23 172.15 305.33
  Q 180.64 316.46 189.75 326.97
  Q 190.20 328.81 188.70 329.39
  Q 188.56 329.44 188.52 329.30
  Q 188.47 329.15 188.42 328.97
  A 0.21 0.21 0.0 0 0 188.01 328.99
  L 187.11 333.40
  Q 187.01 333.90 187.30 334.33
  Q 188.31 335.84 186.76 337.44
  Q 186.55 337.66 186.25 337.61
  Q 186.13 337.59 185.98 337.55
  Q 154.03 303.92 122.37 270.02
  C 100.75 246.88 80.20 222.54 59.07 198.93
  Q 58.08 197.82 57.75 194.44
  C 58.55 189.50 60.84 175.45 58.70 169.88
  Q 59.54 168.92 59.21 167.56
  A 0.69 0.68 -71.0 0 1 60.41 166.97
  L 77.51 188.56
  Z"
/>
<path fill="#151f3b" d="
  M 119.40 168.87
  L 132.20 183.72
  C 134.60 189.71 140.24 196.13 144.43 201.04
  C 150.58 208.24 155.95 216.27 162.21 222.93
  C 167.54 228.60 175.19 234.83 175.00 240.73
  Q 174.98 241.23 175.20 241.67
  Q 178.19 247.66 180.12 255.54
  Q 180.56 257.37 181.67 259.63
  C 184.39 265.21 186.63 271.79 188.79 277.44
  Q 195.25 294.37 203.97 310.29
  Q 204.70 311.63 205.00 313.86
  Q 205.11 314.67 204.47 314.16
  L 197.16 308.33
  Q 193.35 302.58 188.53 296.83
  C 176.50 282.47 165.32 267.46 153.25 253.10
  C 136.51 233.17 120.33 212.77 103.92 192.58
  Q 102.13 190.37 100.44 187.16
  L 119.40 168.87
  Z"
/>
<path fill="#e7eca6" d="
  M 57.75 194.44
  Q 58.08 197.82 59.07 198.93
  C 80.20 222.54 100.75 246.88 122.37 270.02
  Q 154.03 303.92 185.98 337.55
  Q 208.43 360.96 231.44 383.81
  Q 234.46 386.82 242.57 396.71
  Q 242.90 397.11 243.42 397.06
  L 253.97 395.96
  C 254.16 398.93 258.66 401.40 260.66 404.52
  Q 260.82 404.77 260.52 404.82
  L 249.72 406.39
  A 2.73 2.73 0.0 0 1 247.26 405.48
  Q 241.59 399.00 235.96 393.80
  C 208.47 368.41 180.54 343.53 153.51 317.63
  Q 148.71 313.03 138.84 304.04
  C 126.80 293.08 116.68 283.19 101.75 269.74
  Q 88.88 256.00 75.99 241.87
  C 69.34 234.58 63.24 226.39 56.99 218.49
  Q 56.40 217.75 56.39 218.69
  L 56.32 224.78
  L 46.89 214.09
  Q 46.56 213.71 46.55 213.20
  L 46.22 181.23
  Q 46.21 180.39 46.75 181.04
  L 57.75 194.44
  Z"
/>
<path fill="#4a5b6b" d="
  M 240.81 183.09
  Q 241.43 187.23 240.46 191.05
  Q 239.37 186.79 240.81 183.09
  Z"
/>
<path fill="#e7eca6" d="
  M 341.75 188.16
  Q 318.55 207.85 296.70 228.95
  Q 295.26 230.34 293.58 231.44
  Q 293.19 231.69 293.01 231.27
  Q 292.92 231.06 293.02 230.83
  Q 302.17 220.81 311.68 211.18
  C 320.78 201.98 330.29 193.46 339.18 184.22
  Q 339.53 183.86 339.76 184.31
  L 341.75 188.16
  Z"
/>
<path fill="#4a5b6b" d="
  M 356.21 204.93
  Q 356.01 206.00 357.92 207.67
  C 358.13 208.85 358.39 210.63 358.93 211.68
  Q 369.31 231.96 377.14 253.37
  C 377.52 254.43 377.57 256.12 378.37 257.01
  Q 378.69 257.23 378.39 257.78
  Q 378.01 257.59 377.70 258.03
  Q 377.53 258.27 377.55 258.66
  Q 377.92 264.71 378.50 270.58
  A 0.84 0.83 -6.6 0 0 379.45 271.33
  Q 401.92 268.23 421.11 256.82
  C 442.26 244.25 462.36 225.25 477.54 202.70
  Q 470.86 225.17 460.05 248.81
  C 447.18 276.95 428.91 297.32 395.95 297.55
  C 392.48 297.57 387.55 297.02 383.23 296.97
  A 1.16 1.15 -85.1 0 0 382.08 297.94
  Q 381.80 299.58 383.10 300.38
  C 387.43 303.04 391.50 305.34 395.90 308.38
  Q 397.99 309.83 400.70 310.94
  Q 388.33 309.91 377.32 312.77
  C 367.15 314.43 350.74 321.03 347.22 331.93
  Q 344.14 341.48 339.60 350.72
  C 306.81 335.21 282.46 317.23 270.28 281.75
  Q 266.09 269.55 265.06 257.39
  L 293.02 230.83
  Q 292.92 231.06 293.01 231.27
  Q 293.19 231.69 293.58 231.44
  Q 295.26 230.34 296.70 228.95
  Q 318.55 207.85 341.75 188.16
  Q 342.70 188.34 343.57 187.33
  Q 343.96 186.89 344.26 187.39
  C 346.84 191.72 348.78 196.54 352.12 200.28
  Q 354.22 202.63 356.21 204.93
  Z
  M 348.03 268.56
  Q 353.43 273.03 359.02 277.02
  C 361.10 278.50 362.79 281.09 366.00 282.13
  Q 366.50 282.29 366.70 281.80
  Q 366.97 281.15 366.65 280.20
  Q 366.62 274.29 364.31 268.79
  Q 364.11 268.33 364.21 267.83
  C 364.73 265.18 362.94 263.57 362.47 261.68
  Q 360.43 253.46 358.24 246.08
  Q 358.65 240.38 357.11 234.40
  Q 356.89 233.74 356.13 233.60
  Q 355.64 233.51 355.04 233.87
  C 353.29 234.92 351.83 236.08 349.98 236.96
  C 341.14 241.15 333.38 247.37 325.91 253.59
  A 1.14 1.14 0.0 0 0 326.03 255.43
  Q 333.61 260.18 341.18 265.18
  C 343.32 266.59 345.81 267.25 348.03 268.56
  Z"
/>
<path fill="#e7eca6" d="
  M 100.44 187.16
  Q 102.13 190.37 103.92 192.58
  C 120.33 212.77 136.51 233.17 153.25 253.10
  C 165.32 267.46 176.50 282.47 188.53 296.83
  Q 193.35 302.58 197.16 308.33
  L 205.70 325.47
  A 0.34 0.33 -83.7 0 1 205.19 325.88
  Q 204.57 325.39 203.95 325.07
  Q 203.29 324.73 202.75 324.17
  C 192.97 314.00 183.55 304.37 174.05 293.12
  C 161.54 278.31 148.01 264.40 135.07 250.29
  Q 114.55 227.91 93.22 205.63
  L 88.90 201.75
  Q 93.87 193.70 100.44 187.16
  Z"
/>
<path fill="#e7eca6" d="
  M 437.41 207.07
  Q 417.99 219.17 396.25 219.45
  Q 381.82 219.64 372.10 215.39
  Q 369.07 214.07 357.92 207.67
  Q 356.01 206.00 356.21 204.93
  Q 358.66 207.25 363.75 209.74
  C 374.26 214.90 382.03 215.69 393.72 215.38
  C 400.06 215.21 406.08 212.99 412.25 211.46
  Q 416.24 210.47 419.91 208.61
  C 426.39 205.34 435.08 202.25 440.94 195.94
  A 0.56 0.55 78.1 0 1 441.85 196.54
  L 437.41 207.07
  Z"
/>
<path fill="#4a5b6b" d="
  M 440.49 206.47
  L 437.64 206.60
  L 440.99 204.51
  A 0.39 0.39 0.0 0 1 441.51 205.07
  L 440.49 206.47
  Z"
/>
<path fill="#151f3b" d="
  M 437.41 207.07
  Q 437.52 206.83 437.64 206.60
  L 440.49 206.47
  C 429.60 228.95 412.33 247.30 387.92 254.15
  Q 387.45 254.28 386.67 254.91
  Q 386.28 255.22 385.80 255.32
  L 378.37 257.01
  C 377.57 256.12 377.52 254.43 377.14 253.37
  Q 369.31 231.96 358.93 211.68
  C 358.39 210.63 358.13 208.85 357.92 207.67
  Q 369.07 214.07 372.10 215.39
  Q 381.82 219.64 396.25 219.45
  Q 417.99 219.17 437.41 207.07
  Z"
/>
<path fill="#151f3b" d="
  M 101.75 269.74
  Q 101.20 270.97 102.88 272.43
  Q 104.43 273.78 104.90 274.33
  Q 115.38 286.55 126.71 297.56
  A 1.20 1.18 -45.3 0 1 126.71 299.26
  L 118.50 307.39
  L 48.74 370.67
  Q 47.73 371.59 47.80 370.23
  C 48.74 351.58 49.50 332.84 50.80 313.85
  C 52.39 290.44 52.98 266.35 55.25 241.73
  Q 56.80 233.38 56.32 224.78
  L 56.39 218.69
  Q 56.40 217.75 56.99 218.49
  C 63.24 226.39 69.34 234.58 75.99 241.87
  Q 88.88 256.00 101.75 269.74
  Z"
/>
<path fill="#e7eca6" d="
  M 55.25 241.73
  C 52.98 266.35 52.39 290.44 50.80 313.85
  C 49.50 332.84 48.74 351.58 47.80 370.23
  Q 47.73 371.59 48.74 370.67
  L 118.50 307.39
  L 123.19 311.43
  Q 124.77 312.80 123.30 314.29
  L 47.84 390.80
  Q 46.57 392.08 46.57 390.28
  L 46.43 234.17
  A 0.25 0.25 0.0 0 1 46.88 234.03
  L 52.64 242.14
  Q 52.91 242.53 53.38 242.54
  Q 54.44 242.58 55.25 241.73
  Z"
/>
<path fill="#e7eca6" d="
  M 357.11 234.40
  Q 358.65 240.38 358.24 246.08
  Q 355.67 239.76 357.11 234.40
  Z"
/>
<path fill="#151f3b" d="
  M 265.06 257.39
  Q 266.09 269.55 270.28 281.75
  C 282.46 317.23 306.81 335.21 339.60 350.72
  L 340.63 351.68
  Q 349.92 360.26 361.05 366.58
  Q 361.46 366.81 361.13 367.15
  Q 354.17 374.56 351.28 376.55
  Q 347.64 379.04 346.37 380.45
  C 326.15 372.95 305.94 366.50 285.83 357.45
  Q 274.57 352.38 268.32 347.91
  Q 248.52 333.73 238.25 310.98
  Q 234.33 302.29 230.34 293.67
  Q 230.54 292.25 229.40 291.02
  A 0.84 0.83 34.1 0 1 229.23 290.16
  C 230.10 287.75 231.63 286.84 233.40 285.23
  Q 248.90 271.21 265.06 257.39
  Z"
/>
<path fill="#e7eca6" d="
  M 348.03 268.56
  Q 357.14 273.14 364.37 279.92
  Q 364.74 280.27 365.25 280.25
  L 366.65 280.20
  Q 366.97 281.15 366.70 281.80
  Q 366.50 282.29 366.00 282.13
  C 362.79 281.09 361.10 278.50 359.02 277.02
  Q 353.43 273.03 348.03 268.56
  Z"
/>
<path fill="#4a5b6b" d="
  M 480.29 269.11
  Q 479.32 271.22 478.75 273.14
  C 478.02 275.58 476.74 277.12 475.31 279.08
  Q 477.10 273.64 480.29 269.11
  Z"
/>
<path fill="#4a5b6b" d="
  M 473.02 283.24
  L 467.81 292.67
  Q 466.95 292.13 467.44 292.67
  L 473.02 283.24
  Z"
/>
<path fill="#e7eca6" d="
  M 467.44 292.67
  Q 466.95 292.13 467.81 292.67
  Q 461.24 305.21 451.42 314.81
  L 467.44 292.67
  Z"
/>
<path fill="#e7eca6" d="
  M 230.34 293.67
  Q 234.33 302.29 238.25 310.98
  Q 248.52 333.73 268.32 347.91
  Q 274.57 352.38 285.83 357.45
  C 305.94 366.50 326.15 372.95 346.37 380.45
  L 370.86 387.58
  Q 348.62 383.93 328.02 375.21
  Q 325.15 373.99 318.37 372.49
  Q 312.86 371.26 308.73 369.83
  Q 293.17 364.42 280.57 359.43
  C 270.75 355.53 260.75 346.95 253.59 339.92
  C 249.73 336.13 247.14 331.10 243.97 326.69
  C 237.43 317.61 232.64 306.75 227.50 296.81
  Q 227.25 296.34 227.66 295.99
  L 230.34 293.67
  Z"
/>
<path fill="#4a5b6b" d="
  M 207.78 386.21
  Q 200.75 384.82 194.19 382.97
  C 165.15 374.77 133.27 374.68 104.43 384.10
  C 92.49 388.00 81.36 392.45 71.83 399.58
  Q 57.65 410.21 46.35 423.95
  A 0.83 0.82 -44.0 0 1 45.06 423.93
  Q 44.95 423.78 44.94 423.24
  L 46.53 394.47
  A 1.03 1.01 75.1 0 1 46.98 393.68
  Q 49.90 391.75 52.31 389.56
  Q 95.93 349.94 139.33 309.93
  A 0.75 0.74 45.8 0 1 140.36 309.95
  Q 142.82 312.43 145.26 315.24
  Q 172.96 347.12 201.52 378.23
  Q 203.42 380.29 207.78 386.21
  Z"
/>
<path fill="#e7eca6" d="
  M 377.32 312.77
  C 368.65 316.07 360.55 319.17 354.61 327.04
  C 350.80 332.08 349.30 339.47 347.30 345.77
  Q 346.99 346.74 347.67 348.07
  L 340.63 351.68
  L 339.60 350.72
  Q 344.14 341.48 347.22 331.93
  C 350.74 321.03 367.15 314.43 377.32 312.77
  Z"
/>
<path fill="#e7eca6" d="
  M 394.92 391.53
  Q 408.88 391.73 422.07 388.12
  C 433.90 384.88 440.37 382.76 444.09 369.82
  Q 448.47 354.61 449.74 338.83
  A 0.54 0.53 -79.9 0 0 449.36 338.28
  C 438.53 335.21 426.41 330.33 417.19 328.24
  Q 406.19 325.75 394.59 325.50
  C 404.21 324.06 410.87 325.35 419.16 325.70
  Q 424.16 325.92 426.77 326.45
  C 432.75 327.66 438.83 328.55 444.58 330.63
  C 448.30 331.97 451.95 332.25 456.25 333.82
  Q 456.74 334.00 456.75 334.51
  Q 457.36 353.03 452.67 370.83
  C 451.15 376.59 444.87 382.06 439.78 383.78
  C 433.71 385.82 427.99 388.41 421.77 389.54
  C 412.83 391.16 403.64 393.32 394.92 391.53
  Z"
/>
<path fill="#4a5b6b" d="
  M 394.59 325.50
  Q 406.19 325.75 417.19 328.24
  C 426.41 330.33 438.53 335.21 449.36 338.28
  A 0.54 0.53 -79.9 0 1 449.74 338.83
  Q 448.47 354.61 444.09 369.82
  C 440.37 382.76 433.90 384.88 422.07 388.12
  Q 408.88 391.73 394.92 391.53
  C 387.62 391.91 379.51 389.61 370.86 387.58
  L 346.37 380.45
  Q 347.64 379.04 351.28 376.55
  Q 354.17 374.56 361.13 367.15
  Q 361.46 366.81 361.05 366.58
  Q 349.92 360.26 340.63 351.68
  L 347.67 348.07
  C 365.01 342.23 375.96 326.23 394.59 325.50
  Z
  M 403.22 377.04
  L 412.79 374.09
  A 1.92 1.91 -17.3 0 0 414.06 371.69
  Q 411.08 362.09 403.92 356.63
  Q 397.30 351.58 390.83 352.29
  Q 386.27 351.54 381.21 353.46
  Q 370.17 357.66 362.49 365.62
  A 0.47 0.47 0.0 0 0 362.56 366.34
  Q 373.22 373.90 383.93 376.54
  Q 393.02 378.79 403.22 377.04
  Z"
/>
<path fill="#4a5b6b" d="
  M 189.75 326.97
  C 207.94 345.93 226.02 364.64 243.48 384.27
  Q 247.44 388.72 253.13 393.34
  C 254.05 394.09 254.17 394.88 253.97 395.96
  L 243.42 397.06
  Q 242.90 397.11 242.57 396.71
  Q 234.46 386.82 231.44 383.81
  Q 208.43 360.96 185.98 337.55
  Q 186.13 337.59 186.25 337.61
  Q 186.55 337.66 186.76 337.44
  Q 188.31 335.84 187.30 334.33
  Q 187.01 333.90 187.11 333.40
  L 188.01 328.99
  A 0.21 0.21 0.0 0 1 188.42 328.97
  Q 188.47 329.15 188.52 329.30
  Q 188.56 329.44 188.70 329.39
  Q 190.20 328.81 189.75 326.97
  Z"
/>
<path fill="#e7eca6" d="
  M 390.83 352.29
  Q 381.08 355.64 376.56 359.85
  Q 372.80 363.36 369.30 365.78
  A 1.62 1.62 0.0 0 0 369.59 368.61
  C 375.37 371.05 381.19 374.63 387.07 375.79
  Q 395.00 377.36 403.22 377.04
  Q 393.02 378.79 383.93 376.54
  Q 373.22 373.90 362.56 366.34
  A 0.47 0.47 0.0 0 1 362.49 365.62
  Q 370.17 357.66 381.21 353.46
  Q 386.27 351.54 390.83 352.29
  Z"
/>
<path fill="#263748" d="
  M 207.78 386.21
  L 214.48 393.19
  Q 214.91 393.64 214.34 393.89
  L 211.09 395.30
  Q 202.10 398.54 195.00 403.25
  Q 190.00 406.57 182.53 412.96
  Q 171.91 410.20 158.52 410.10
  Q 110.70 409.76 70.25 431.35
  C 62.61 435.43 54.09 441.20 46.16 446.27
  Q 45.72 446.55 45.27 446.54
  Q 44.75 446.53 44.24 446.49
  Q 43.90 446.46 43.77 446.78
  L 43.31 448.01
  Q 43.21 445.09 44.30 442.92
  Q 44.53 442.47 44.27 442.05
  C 43.21 440.31 44.22 438.72 44.23 437.22
  Q 44.25 430.22 44.94 423.24
  Q 44.95 423.78 45.06 423.93
  A 0.83 0.82 -44.0 0 0 46.35 423.95
  Q 57.65 410.21 71.83 399.58
  C 81.36 392.45 92.49 388.00 104.43 384.10
  C 133.27 374.68 165.15 374.77 194.19 382.97
  Q 200.75 384.82 207.78 386.21
  Z"
/>
<path fill="#e7eca6" d="
  M 211.09 395.30
  L 219.49 403.30
  A 0.68 0.68 0.0 0 1 219.34 404.39
  C 207.89 410.53 197.38 417.06 187.79 426.27
  C 181.84 431.99 175.32 437.67 170.93 444.32
  Q 163.23 456.01 159.00 469.45
  Q 158.85 469.90 158.39 469.85
  Q 154.91 469.51 151.42 470.69
  Q 152.03 469.10 151.70 467.67
  Q 151.57 467.12 151.00 467.09
  L 46.58 460.80
  Q 48.02 454.97 46.96 448.89
  Q 48.26 448.61 48.75 448.65
  Q 65.39 450.23 82.08 450.36
  C 94.87 450.46 105.63 451.10 117.42 451.67
  C 126.33 452.09 140.69 453.35 152.40 453.50
  Q 152.91 453.51 153.04 453.02
  Q 155.36 444.24 161.13 435.61
  C 168.03 425.26 174.25 420.37 182.53 412.96
  Q 190.00 406.57 195.00 403.25
  Q 202.10 398.54 211.09 395.30
  Z"
/>
<path fill="#4a5b6b" d="
  M 182.53 412.96
  C 174.25 420.37 168.03 425.26 161.13 435.61
  Q 155.36 444.24 153.04 453.02
  Q 152.91 453.51 152.40 453.50
  C 140.69 453.35 126.33 452.09 117.42 451.67
  C 105.63 451.10 94.87 450.46 82.08 450.36
  Q 65.39 450.23 48.75 448.65
  Q 48.26 448.61 46.96 448.89
  L 43.31 448.01
  L 43.77 446.78
  Q 43.90 446.46 44.24 446.49
  Q 44.75 446.53 45.27 446.54
  Q 45.72 446.55 46.16 446.27
  C 54.09 441.20 62.61 435.43 70.25 431.35
  Q 110.70 409.76 158.52 410.10
  Q 171.91 410.20 182.53 412.96
  Z"
/>
<path fill="#151f3b" d="
  M 46.58 460.80
  L 151.00 467.09
  Q 151.57 467.12 151.70 467.67
  Q 152.03 469.10 151.42 470.69
  L 150.70 483.78
  L 150.22 489.77
  Q 150.17 490.35 149.59 490.31
  L 47.35 483.79
  L 43.02 482.68
  Q 42.56 482.56 42.50 482.09
  Q 41.54 474.13 42.43 467.94
  C 42.92 464.57 40.96 460.15 46.58 460.80
  Z"
/>
<path fill="#e7eca6" d="
  M 47.35 483.79
  L 149.59 490.31
  Q 150.17 490.35 150.22 489.77
  L 150.70 483.78
  L 158.60 483.62
  Q 159.09 483.61 159.08 484.10
  L 158.76 506.89
  Q 158.75 507.53 158.11 507.53
  L 48.05 507.83
  Q 46.08 507.84 46.34 505.89
  Q 47.78 494.98 47.35 483.79
  Z"
/>
</svg>
